<svg aria-hidden="true" style="position: absolute; width: 0; height: 0; overflow: hidden;" version="1.1" xmlns="http://www.w3.org/2000/svg" xmlns:xlink="http://www.w3.org/1999/xlink">
<defs>
<symbol id="icon-aperture" viewBox="0 0 24 24">
<title>aperture</title>
<path d="M11.422 7l2.223-3.85c0.624 0.115 1.225 0.295 1.796 0.531 1.101 0.456 2.092 1.124 2.922 1.955 0.417 0.416 0.793 0.873 1.122 1.364h-5.194zM7.38 10l-2.222-3.847c0.153-0.179 0.312-0.351 0.478-0.517 0.831-0.831 1.822-1.499 2.922-1.955 0.887-0.368 1.847-0.597 2.853-0.662l-2.592 4.49zM7.958 15h-4.446c-0.331-0.937-0.512-1.947-0.512-3 0-1.221 0.243-2.383 0.681-3.442 0.076-0.183 0.158-0.363 0.245-0.54l2.6 4.504zM17.473 11.478l-1.431-2.478h4.446c0.331 0.937 0.512 1.947 0.512 3 0 1.221-0.243 2.383-0.681 3.442-0.076 0.183-0.158 0.363-0.245 0.54l-2.576-4.462zM12.588 20.981l4.032-6.981 2.222 3.848c-0.153 0.178-0.312 0.351-0.478 0.516-0.831 0.831-1.822 1.499-2.922 1.955-0.887 0.368-1.847 0.597-2.853 0.662zM10.699 22.924c0.046 0.009 0.093 0.014 0.14 0.016 0.382 0.039 0.769 0.060 1.161 0.060 1.488 0 2.91-0.296 4.207-0.833 1.347-0.558 2.558-1.375 3.571-2.388 0.366-0.366 0.706-0.757 1.018-1.172 0.041-0.046 0.078-0.096 0.11-0.149 0.504-0.693 0.928-1.448 1.261-2.251 0.537-1.297 0.833-2.719 0.833-4.207s-0.296-2.91-0.833-4.207c-0.018-0.043-0.036-0.086-0.054-0.129-0.016-0.043-0.034-0.086-0.055-0.126-0.553-1.245-1.33-2.367-2.279-3.316-1.013-1.013-2.224-1.831-3.571-2.388-0.914-0.379-1.889-0.637-2.906-0.757-0.046-0.009-0.093-0.014-0.14-0.016-0.382-0.040-0.77-0.061-1.162-0.061-1.488 0-2.91 0.296-4.207 0.833-1.347 0.558-2.558 1.375-3.571 2.389-0.366 0.366-0.706 0.757-1.018 1.171-0.041 0.047-0.078 0.096-0.11 0.149-0.503 0.693-0.928 1.448-1.261 2.251-0.537 1.297-0.833 2.719-0.833 4.207s0.296 2.91 0.833 4.207c0.018 0.043 0.036 0.086 0.054 0.129 0.016 0.043 0.034 0.086 0.055 0.126 0.553 1.245 1.33 2.367 2.279 3.316 1.013 1.013 2.224 1.831 3.571 2.388 0.914 0.378 1.889 0.637 2.906 0.757zM12.578 17l-2.223 3.85c-0.624-0.115-1.225-0.295-1.796-0.531-1.101-0.456-2.092-1.124-2.922-1.955-0.417-0.416-0.793-0.873-1.122-1.364h5.194zM15.465 12l-1.732 3h-3.466l-1.732-3 1.732-3h3.466z"></path>
</symbol>
<symbol id="icon-camera" viewBox="0 0 24 24">
<title>camera</title>
<path d="M24 19v-11c0-0.405-0.081-0.793-0.228-1.148-0.152-0.368-0.375-0.698-0.651-0.974s-0.606-0.499-0.974-0.651c-0.354-0.146-0.742-0.227-1.147-0.227h-3.465l-1.703-2.555c-0.182-0.27-0.486-0.445-0.832-0.445h-6c-0.326 0.002-0.64 0.158-0.832 0.445l-1.703 2.555h-3.465c-0.405 0-0.793 0.081-1.148 0.228-0.367 0.152-0.697 0.375-0.973 0.651s-0.499 0.606-0.651 0.973c-0.147 0.355-0.228 0.743-0.228 1.148v11c0 0.405 0.081 0.793 0.228 1.148 0.152 0.368 0.375 0.698 0.651 0.974s0.606 0.499 0.974 0.651c0.354 0.146 0.742 0.227 1.147 0.227h18c0.405 0 0.793-0.081 1.148-0.228 0.368-0.152 0.698-0.375 0.974-0.651s0.499-0.606 0.651-0.974c0.146-0.354 0.227-0.742 0.227-1.147zM22 19c0 0.137-0.027 0.266-0.075 0.382-0.050 0.122-0.125 0.232-0.218 0.325s-0.203 0.167-0.325 0.218c-0.116 0.048-0.245 0.075-0.382 0.075h-18c-0.137 0-0.266-0.027-0.382-0.075-0.122-0.050-0.232-0.125-0.325-0.218s-0.167-0.203-0.218-0.325c-0.048-0.116-0.075-0.245-0.075-0.382v-11c0-0.137 0.027-0.266 0.075-0.382 0.050-0.122 0.125-0.232 0.218-0.325s0.203-0.167 0.325-0.218c0.116-0.048 0.245-0.075 0.382-0.075h4c0.346 0 0.65-0.175 0.832-0.445l1.703-2.555h4.93l1.703 2.555c0.192 0.287 0.506 0.443 0.832 0.445h4c0.137 0 0.266 0.027 0.382 0.075 0.122 0.050 0.232 0.125 0.325 0.218s0.167 0.203 0.218 0.325c0.048 0.116 0.075 0.245 0.075 0.382zM17 13c0-0.675-0.134-1.322-0.379-1.912-0.254-0.613-0.625-1.163-1.085-1.623s-1.011-0.832-1.623-1.085c-0.591-0.246-1.238-0.38-1.913-0.38s-1.322 0.134-1.912 0.379c-0.613 0.254-1.163 0.625-1.624 1.085s-0.832 1.011-1.085 1.623c-0.245 0.591-0.379 1.238-0.379 1.913s0.134 1.322 0.379 1.912c0.254 0.613 0.625 1.163 1.085 1.623s1.011 0.832 1.623 1.085c0.591 0.246 1.238 0.38 1.913 0.38s1.322-0.134 1.912-0.379c0.613-0.254 1.163-0.625 1.623-1.085s0.832-1.011 1.085-1.623c0.246-0.591 0.38-1.238 0.38-1.913zM15 13c0 0.408-0.081 0.795-0.227 1.147-0.152 0.366-0.375 0.697-0.652 0.974s-0.608 0.5-0.974 0.652c-0.352 0.146-0.739 0.227-1.147 0.227s-0.795-0.081-1.147-0.227c-0.366-0.152-0.697-0.375-0.974-0.652s-0.5-0.608-0.652-0.974c-0.146-0.352-0.227-0.739-0.227-1.147s0.081-0.795 0.227-1.147c0.152-0.366 0.375-0.697 0.652-0.974s0.608-0.5 0.974-0.652c0.352-0.146 0.739-0.227 1.147-0.227s0.795 0.081 1.147 0.227c0.366 0.152 0.697 0.375 0.974 0.652s0.5 0.608 0.652 0.974c0.146 0.352 0.227 0.739 0.227 1.147z"></path>
</symbol>
<symbol id="icon-home" viewBox="0 0 24 24">
<title>home</title>
<path d="M2.386 8.211c-0.236 0.184-0.386 0.469-0.386 0.789v11c0 0.405 0.081 0.793 0.228 1.148 0.152 0.368 0.375 0.698 0.651 0.974s0.606 0.499 0.974 0.651c0.354 0.146 0.742 0.227 1.147 0.227h14c0.405 0 0.793-0.081 1.148-0.228 0.368-0.152 0.698-0.375 0.974-0.651s0.499-0.606 0.651-0.974c0.146-0.354 0.227-0.742 0.227-1.147v-11c-0.001-0.3-0.134-0.593-0.386-0.789l-9-7c-0.358-0.275-0.861-0.285-1.228 0zM16 21v-9c0-0.552-0.448-1-1-1h-6c-0.552 0-1 0.448-1 1v9h-3c-0.137 0-0.266-0.027-0.382-0.075-0.122-0.050-0.232-0.125-0.325-0.218s-0.167-0.203-0.218-0.325c-0.048-0.116-0.075-0.245-0.075-0.382v-10.511l8-6.222 8 6.222v10.511c0 0.137-0.027 0.266-0.075 0.382-0.050 0.122-0.125 0.232-0.218 0.325s-0.203 0.167-0.325 0.218c-0.116 0.048-0.245 0.075-0.382 0.075zM10 21v-8h4v8z"></path>
</symbol>
<symbol id="icon-mail" viewBox="0 0 24 24">
<title>mail</title>
<path d="M3 7.921l8.427 5.899c0.34 0.235 0.795 0.246 1.147 0l8.426-5.899v10.079c0 0.134-0.027 0.261-0.075 0.377-0.051 0.122-0.126 0.234-0.22 0.328s-0.206 0.169-0.328 0.22c-0.116 0.048-0.243 0.075-0.377 0.075h-16c-0.134 0-0.261-0.027-0.377-0.075-0.122-0.051-0.234-0.126-0.328-0.22s-0.169-0.206-0.22-0.328c-0.048-0.116-0.075-0.243-0.075-0.377zM1 6.012v11.988c0 0.403 0.081 0.79 0.227 1.143 0.153 0.369 0.377 0.7 0.653 0.977s0.608 0.501 0.977 0.653c0.353 0.146 0.74 0.227 1.143 0.227h16c0.403 0 0.79-0.081 1.143-0.227 0.369-0.153 0.7-0.377 0.977-0.653s0.501-0.608 0.653-0.977c0.146-0.353 0.227-0.74 0.227-1.143v-12c0-0.006 0-0.012 0-0.017-0.002-0.397-0.083-0.777-0.227-1.125-0.153-0.369-0.377-0.7-0.653-0.977s-0.608-0.501-0.977-0.653c-0.353-0.147-0.74-0.228-1.143-0.228h-16c-0.403 0-0.79 0.081-1.143 0.227-0.369 0.153-0.7 0.377-0.977 0.653s-0.5 0.608-0.653 0.977c-0.144 0.348-0.225 0.729-0.227 1.126 0 0.005 0 0.011 0 0.017zM20.894 5.554l-8.894 6.225-8.894-6.225c0.048-0.095 0.112-0.183 0.188-0.259 0.095-0.095 0.206-0.17 0.329-0.22 0.116-0.048 0.243-0.075 0.377-0.075h16c0.134 0 0.261 0.027 0.377 0.075 0.122 0.051 0.234 0.126 0.328 0.22 0.076 0.076 0.14 0.164 0.188 0.259z"></path>
</symbol>
<symbol id="icon-refresh-cw" viewBox="0 0 24 24">
<title>refresh-cw</title>
<path d="M4.453 9.334c0.362-1.023 0.91-1.925 1.591-2.682 0.708-0.787 1.562-1.42 2.505-1.869s1.971-0.716 3.029-0.772c1.017-0.054 2.063 0.088 3.086 0.45 1.186 0.42 2.206 1.088 2.983 1.88l2.829 2.659h-3.476c-0.552 0-1 0.448-1 1s0.448 1 1 1h6c0.004 0 0.007 0 0.011 0 0.137-0.001 0.268-0.031 0.386-0.082 0.122-0.053 0.231-0.129 0.322-0.223 0.013-0.014 0.027-0.028 0.039-0.043 0.072-0.083 0.13-0.179 0.171-0.282 0.041-0.102 0.065-0.212 0.069-0.327 0.002-0.015 0.002-0.029 0.002-0.043v-6c0-0.552-0.448-1-1-1s-1 0.448-1 1v3.689l-2.926-2.749c-0.992-1.010-2.271-1.843-3.743-2.364-1.275-0.451-2.583-0.629-3.858-0.562-1.324 0.070-2.609 0.403-3.785 0.964s-2.243 1.351-3.13 2.336c-0.854 0.949-1.539 2.077-1.99 3.353-0.184 0.521 0.088 1.092 0.609 1.276s1.092-0.088 1.276-0.609zM2 16.312l2.955 2.777c0.934 0.935 2.038 1.659 3.217 2.148 1.224 0.507 2.528 0.761 3.831 0.761s2.607-0.253 3.831-0.759c1.18-0.488 2.284-1.211 3.241-2.168 1.104-1.104 1.901-2.407 2.361-3.745 0.18-0.522-0.098-1.091-0.621-1.271s-1.091 0.098-1.271 0.621c-0.361 1.050-0.993 2.091-1.883 2.981-0.768 0.767-1.65 1.345-2.592 1.734-0.978 0.405-2.022 0.608-3.066 0.607s-2.087-0.204-3.065-0.609c-0.941-0.39-1.823-0.968-2.613-1.757l-2.8-2.632h3.475c0.552 0 1-0.448 1-1s-0.448-1-1-1h-6c-0.004 0-0.007 0-0.011 0-0.137 0.001-0.268 0.031-0.386 0.082-0.122 0.053-0.232 0.13-0.323 0.225-0.013 0.013-0.025 0.027-0.037 0.041-0.072 0.084-0.131 0.18-0.172 0.284-0.040 0.102-0.064 0.211-0.069 0.326-0.002 0.014-0.002 0.028-0.002 0.042v6c0 0.552 0.448 1 1 1s1-0.448 1-1z"></path>
</symbol>
<symbol id="icon-git-merge" viewBox="0 0 24 24">
<title>git-merge</title>
<path d="M20 18c0 0.273-0.054 0.53-0.151 0.765-0.101 0.244-0.25 0.464-0.435 0.65s-0.406 0.334-0.65 0.435c-0.234 0.096-0.491 0.15-0.764 0.15s-0.53-0.054-0.765-0.151c-0.244-0.101-0.464-0.25-0.65-0.435s-0.334-0.406-0.435-0.65c-0.096-0.234-0.15-0.491-0.15-0.764s0.054-0.53 0.151-0.765c0.101-0.244 0.25-0.464 0.435-0.65s0.406-0.334 0.65-0.435c0.234-0.096 0.491-0.15 0.764-0.15s0.53 0.054 0.765 0.151c0.244 0.101 0.464 0.25 0.65 0.435s0.334 0.406 0.435 0.65c0.096 0.234 0.15 0.491 0.15 0.764zM8 6c0 0.273-0.054 0.53-0.151 0.765-0.101 0.244-0.25 0.464-0.435 0.65s-0.406 0.334-0.65 0.435c-0.234 0.096-0.491 0.15-0.764 0.15s-0.53-0.054-0.765-0.151c-0.244-0.101-0.464-0.25-0.65-0.435s-0.334-0.406-0.435-0.65c-0.096-0.234-0.15-0.491-0.15-0.764s0.054-0.53 0.151-0.765c0.101-0.244 0.25-0.464 0.435-0.65s0.406-0.334 0.65-0.435c0.234-0.096 0.491-0.15 0.764-0.15s0.53 0.054 0.765 0.151c0.244 0.101 0.464 0.25 0.65 0.435s0.334 0.406 0.435 0.65c0.096 0.234 0.15 0.491 0.15 0.764zM7 21v-5.999c0.284 0.379 0.595 0.736 0.929 1.070 0.921 0.921 2.022 1.664 3.247 2.171 0.92 0.381 1.909 0.629 2.941 0.719 0.048 0.195 0.111 0.385 0.187 0.568 0.203 0.49 0.5 0.93 0.868 1.298s0.808 0.665 1.298 0.868c0.473 0.197 0.99 0.305 1.53 0.305s1.057-0.108 1.53-0.303c0.49-0.203 0.93-0.5 1.298-0.868s0.665-0.808 0.868-1.298c0.196-0.474 0.304-0.991 0.304-1.531s-0.108-1.057-0.303-1.53c-0.203-0.49-0.5-0.93-0.868-1.298s-0.808-0.665-1.298-0.868c-0.474-0.196-0.991-0.304-1.531-0.304s-1.057 0.108-1.53 0.303c-0.49 0.203-0.93 0.5-1.298 0.868s-0.665 0.808-0.868 1.298c-0.065 0.157-0.12 0.318-0.165 0.484-0.771-0.082-1.509-0.274-2.197-0.56-0.978-0.405-1.859-0.999-2.598-1.738s-1.333-1.62-1.738-2.598c-0.285-0.689-0.477-1.426-0.56-2.197 0.166-0.045 0.327-0.1 0.484-0.165 0.49-0.203 0.93-0.5 1.298-0.868s0.666-0.807 0.869-1.297c0.195-0.473 0.303-0.99 0.303-1.53s-0.108-1.057-0.303-1.53c-0.203-0.49-0.5-0.93-0.868-1.298s-0.809-0.666-1.299-0.869c-0.473-0.195-0.99-0.303-1.53-0.303s-1.057 0.108-1.53 0.303c-0.49 0.203-0.93 0.5-1.298 0.868s-0.666 0.809-0.869 1.299c-0.195 0.473-0.303 0.99-0.303 1.53s0.108 1.057 0.303 1.53c0.203 0.49 0.5 0.93 0.868 1.298s0.809 0.666 1.299 0.869c0.171 0.071 0.348 0.13 0.53 0.177v11.126c0 0.552 0.448 1 1 1s1-0.448 1-1z"></path>
</symbol>
</defs>
</svg>
